<?xml version="1.0" encoding="UTF-8" standalone="no"?>
<svg
   id="flag-icons-be"
   viewBox="0 0 640 480"
   version="1.1"
   sodipodi:docname="nl.svg"
   xml:space="preserve"
   inkscape:version="1.3.2 (091e20e, 2023-11-25, custom)"
   xmlns:inkscape="http://www.inkscape.org/namespaces/inkscape"
   xmlns:sodipodi="http://sodipodi.sourceforge.net/DTD/sodipodi-0.dtd"
   xmlns="http://www.w3.org/2000/svg"
   xmlns:svg="http://www.w3.org/2000/svg"><defs
     id="defs3" /><sodipodi:namedview
     id="namedview3"
     pagecolor="#ffffff"
     bordercolor="#999999"
     borderopacity="1"
     inkscape:showpageshadow="2"
     inkscape:pageopacity="0"
     inkscape:pagecheckerboard="0"
     inkscape:deskcolor="#d1d1d1"
     inkscape:zoom="1.5109375"
     inkscape:cx="320"
     inkscape:cy="239.91727"
     inkscape:window-width="1920"
     inkscape:window-height="1027"
     inkscape:window-x="-8"
     inkscape:window-y="-8"
     inkscape:window-maximized="1"
     inkscape:current-layer="g4" /><g
     fill-rule="evenodd"
     stroke-width="1pt"
     id="g3"><path
       fill="#000001"
       d="M0 0h213.3v480H0z"
       id="path1" /><path
       fill="#ffd90c"
       d="M213.3 0h213.4v480H213.3z"
       id="path2" /><path
       fill="#f31830"
       d="M426.7 0H640v480H426.7z"
       id="path3" /></g><g
     id="g4"
     transform="translate(0,-0.08273009)"><path
       id="path1-3"
       d="M 640,0.08273009 H 0 V 160.0007 h 426.74023 z"
       style="display:none" /><path
       id="path6"
       d="M 640 0.08273009 L 426.74023 160.0007 L 640 160.0007 L 640 0.08273009 z "
       style="fill:#ae1c28;fill-opacity:1" /><path
       id="path5"
       d="M 0 0.00069884 L 0 0.08273009 L 640 0.08273009 L 640 0.00069884 L 0 0.00069884 z " /><path
       id="path2-9"
       d="M 426.74023 160.0007 L 213.42383 320.0007 L 640 320.0007 L 640 160.0007 L 426.74023 160.0007 z "
       style="fill:#ffffff;fill-opacity:1" /><path
       id="path3-7"
       d="M 213.42383 320.0007 L 0 480.0007 L 640 480.0007 L 640 320.0007 L 213.42383 320.0007 z "
       style="fill:#21468b;fill-opacity:1" /></g></svg>
