<?xml version="1.0" encoding="UTF-8" standalone="no"?>
<!-- Created with Inkscape (http://www.inkscape.org/) -->

<svg
   width="200mm"
   height="200mm"
   viewBox="0 0 200 200"
   version="1.1"
   id="svg1"
   inkscape:version="1.3.2 (091e20e, 2023-11-25, custom)"
   sodipodi:docname="favicon.svg"
   xmlns:inkscape="http://www.inkscape.org/namespaces/inkscape"
   xmlns:sodipodi="http://sodipodi.sourceforge.net/DTD/sodipodi-0.dtd"
   xmlns="http://www.w3.org/2000/svg"
   xmlns:svg="http://www.w3.org/2000/svg">
  <sodipodi:namedview
     id="namedview1"
     pagecolor="#ffffff"
     bordercolor="#999999"
     borderopacity="1"
     inkscape:showpageshadow="2"
     inkscape:pageopacity="0"
     inkscape:pagecheckerboard="true"
     inkscape:deskcolor="#d1d1d1"
     inkscape:document-units="mm"
     inkscape:zoom="0.74029882"
     inkscape:cx="406.59257"
     inkscape:cy="391.0583"
     inkscape:window-width="1920"
     inkscape:window-height="1027"
     inkscape:window-x="-8"
     inkscape:window-y="-8"
     inkscape:window-maximized="1"
     inkscape:current-layer="layer1" />
  <defs
     id="defs1">
    <clipPath
       clipPathUnits="userSpaceOnUse"
       id="clipPath25">
      <path
         d="M 0,39.685 H 107.717 V 0 H 0 Z"
         transform="translate(-77.190602,-30.366301)"
         id="path25" />
    </clipPath>
  </defs>
  <g
     inkscape:label="Capa 1"
     inkscape:groupmode="layer"
     id="layer1">
    <circle
       style="fill:#000000;fill-opacity:1;stroke-width:0.618143;stroke-linejoin:round;stroke-miterlimit:5"
       id="path1"
       cx="100"
       cy="100.57721"
       r="95.845337" />
    <path
       id="path24"
       d="M 0,0 C -0.09,0.53 -0.22,1.05 -0.39,1.55 -0.68,2.41 -1.12,3.27 -1.72,4.14 -2.32,5.01 -3.09,5.8 -4.05,6.51 -4.88,7.1 -5.79,7.58 -6.79,7.93 -7.8,8.29 -8.86,8.46 -10,8.46 c -0.55,0 -1.09,-0.04 -1.62,-0.13 -0.54,-0.09 -1.05,-0.22 -1.55,-0.39 -0.99,-0.34 -1.91,-0.81 -2.77,-1.43 -0.86,-0.62 -1.6,-1.35 -2.22,-2.19 -0.63,-0.86 -1.12,-1.78 -1.46,-2.78 -0.35,-0.99 -0.53,-2.05 -0.53,-3.16 0,-0.56 0.05,-1.11 0.14,-1.66 0.09,-0.54 0.22,-1.07 0.39,-1.58 0.34,-1.06 0.83,-2.02 1.45,-2.86 0.63,-0.84 1.36,-1.58 2.2,-2.21 0.84,-0.62 1.76,-1.11 2.77,-1.47 1.01,-0.36 2.08,-0.54 3.2,-0.54 0.27,0 0.55,0.01 0.82,0.03 -0.1,0.21 -0.2,0.43 -0.32,0.6 -0.37,0.51 -0.9,0.75 -1.43,1.11 -1.84,1.28 -3.15,2.93 -3.77,5.1 -0.45,1.52 0.02,3.12 0.69,4.51 0.06,0.13 0.13,0.26 0.19,0.39 0.21,0.41 0.66,1.09 0.67,1.55 0.02,0.64 -0.43,1 -0.83,1.38 -0.19,0.2 -0.41,0.42 -0.58,0.66 -0.2,-0.06 -0.41,-0.09 -0.63,-0.1 -0.21,-0.02 -1.28,-0.21 -1.07,0.27 0.1,0.2 0.29,0.36 0.45,0.52 0.14,0.13 0.26,0.27 0.41,0.4 0.12,0.12 0.27,0.28 0.43,0.36 0.03,0.78 0.45,1.48 1.28,1.78 0.86,0.31 1.97,0.32 2.82,-0.03 1.13,-0.46 1.93,-1.48 2.55,-2.48 0.49,-0.8 0.91,-1.64 1.24,-2.53 0.28,-0.76 0.38,-1.51 0.71,-2.24 0.23,-0.51 0.42,-0.9 0.92,-1.18 0.43,-0.25 0.92,-0.36 1.34,-0.64 1.15,-0.77 2.07,-1.7 3.05,-2.67 0.14,-0.13 0.27,-0.27 0.42,-0.4 0.09,0.23 0.18,0.47 0.26,0.71 0.34,1.05 0.51,2.12 0.51,3.22 C 0.13,-1.07 0.09,-0.53 0,0"
       style="fill:#fcfcfc;fill-opacity:1;fill-rule:nonzero;stroke:none"
       transform="matrix(9.8039216,0,0,-9.8039216,198.07819,82.941177)"
       clip-path="url(#clipPath25)" />
  </g>
</svg>
