<?xml version="1.0" encoding="UTF-8" standalone="no"?>
<!-- Created with Inkscape (http://www.inkscape.org/) -->

<svg
   version="1.1"
   id="svg1"
   width="143.62267"
   height="52.913334"
   viewBox="0 0 143.62267 52.913334"
   sodipodi:docname="logo-text-w.svg"
   inkscape:version="1.3.2 (091e20e, 2023-11-25, custom)"
   xmlns:inkscape="http://www.inkscape.org/namespaces/inkscape"
   xmlns:sodipodi="http://sodipodi.sourceforge.net/DTD/sodipodi-0.dtd"
   xmlns="http://www.w3.org/2000/svg"
   xmlns:svg="http://www.w3.org/2000/svg">
  <defs
     id="defs1">
    <clipPath
       clipPathUnits="userSpaceOnUse"
       id="clipPath3">
      <path
         d="M 0,39.685 H 107.717 V 0 H 0 Z"
         transform="translate(-27.755101,-5.0482999)"
         id="path3" />
    </clipPath>
    <clipPath
       clipPathUnits="userSpaceOnUse"
       id="clipPath5">
      <path
         d="M 0,39.685 H 107.717 V 0 H 0 Z"
         transform="translate(-35.702401,-3.7497003)"
         id="path5" />
    </clipPath>
    <clipPath
       clipPathUnits="userSpaceOnUse"
       id="clipPath7">
      <path
         d="M 0,39.685 H 107.717 V 0 H 0 Z"
         transform="translate(-43.867901,-7.4377002)"
         id="path7" />
    </clipPath>
    <clipPath
       clipPathUnits="userSpaceOnUse"
       id="clipPath9">
      <path
         d="M 0,39.685 H 107.717 V 0 H 0 Z"
         transform="translate(-57.757702,-17.888701)"
         id="path9" />
    </clipPath>
    <clipPath
       clipPathUnits="userSpaceOnUse"
       id="clipPath11">
      <path
         d="M 0,39.685 H 107.717 V 0 H 0 Z"
         transform="translate(-75.304104,-6.8040004)"
         id="path11" />
    </clipPath>
    <clipPath
       clipPathUnits="userSpaceOnUse"
       id="clipPath13">
      <path
         d="M 0,39.685 H 107.717 V 0 H 0 Z"
         transform="translate(-82.981405,-7.4377002)"
         id="path13" />
    </clipPath>
    <clipPath
       clipPathUnits="userSpaceOnUse"
       id="clipPath15">
      <path
         d="M 0,39.685 H 107.717 V 0 H 0 Z"
         transform="translate(-4.4506001,-22.2164)"
         id="path15" />
    </clipPath>
    <clipPath
       clipPathUnits="userSpaceOnUse"
       id="clipPath17">
      <path
         d="M 0,39.685 H 107.717 V 0 H 0 Z"
         transform="translate(-13.730601,-26.436301)"
         id="path17" />
    </clipPath>
    <clipPath
       clipPathUnits="userSpaceOnUse"
       id="clipPath19">
      <path
         d="M 0,39.685 H 107.717 V 0 H 0 Z"
         transform="translate(-33.270601,-31.966401)"
         id="path19" />
    </clipPath>
    <clipPath
       clipPathUnits="userSpaceOnUse"
       id="clipPath21">
      <path
         d="M 0,39.685 H 107.717 V 0 H 0 Z"
         transform="translate(-41.160601,-26.626301)"
         id="path21" />
    </clipPath>
    <clipPath
       clipPathUnits="userSpaceOnUse"
       id="clipPath23">
      <path
         d="M 0,39.685 H 107.717 V 0 H 0 Z"
         transform="translate(-53.540602,-22.306301)"
         id="path23" />
    </clipPath>
    <clipPath
       clipPathUnits="userSpaceOnUse"
       id="clipPath25">
      <path
         d="M 0,39.685 H 107.717 V 0 H 0 Z"
         transform="translate(-77.190602,-30.366301)"
         id="path25" />
    </clipPath>
    <clipPath
       clipPathUnits="userSpaceOnUse"
       id="clipPath27">
      <path
         d="M 0,39.685 H 107.717 V 0 H 0 Z"
         transform="translate(-88.440602,-38.656401)"
         id="path27" />
    </clipPath>
    <clipPath
       clipPathUnits="userSpaceOnUse"
       id="clipPath29">
      <path
         d="M 0,39.685 H 107.717 V 0 H 0 Z"
         transform="translate(-99.900602,-26.626301)"
         id="path29" />
    </clipPath>
  </defs>
  <sodipodi:namedview
     id="namedview1"
     pagecolor="#ffffff"
     bordercolor="#999999"
     borderopacity="1"
     inkscape:showpageshadow="2"
     inkscape:pageopacity="0"
     inkscape:pagecheckerboard="true"
     inkscape:deskcolor="#d1d1d1"
     inkscape:zoom="8.6615858"
     inkscape:cx="69.040475"
     inkscape:cy="24.764518"
     inkscape:window-width="1920"
     inkscape:window-height="1027"
     inkscape:window-x="-8"
     inkscape:window-y="-8"
     inkscape:window-maximized="1"
     inkscape:current-layer="g1">
    <inkscape:page
       x="0"
       y="0"
       inkscape:label="1"
       id="page1"
       width="143.62267"
       height="52.913334"
       margin="0.53930664 0.78133333 1.1449333 0.774068"
       bleed="0" />
  </sodipodi:namedview>
  <g
     id="g1"
     inkscape:groupmode="layer"
     inkscape:label="1">
    <g
       id="group-MC0">
      <path
         id="path2"
         d="m 0,0 c -0.052,-0.27 -0.156,-0.499 -0.218,-0.644 -0.135,-0.229 -0.27,-0.395 -0.436,-0.53 -0.312,-0.28 -0.728,-0.415 -1.226,-0.415 h -1.174 v 4.706 h 1.174 c 0.218,0 0.436,-0.032 0.654,-0.094 C -0.81,2.898 -0.488,2.618 -0.249,2.202 -0.145,2.015 -0.062,1.787 0,1.527 0.052,1.299 0.073,1.049 0.073,0.769 0.073,0.488 0.052,0.229 0,0 m -3.054,9.932 h 1.007 c 0.187,0 0.395,-0.032 0.624,-0.094 0.187,-0.052 0.363,-0.145 0.53,-0.301 0.145,-0.125 0.28,-0.27 0.374,-0.426 0.207,-0.353 0.301,-0.769 0.301,-1.288 0,-0.115 0,-0.229 -0.011,-0.343 C -0.239,7.355 -0.249,7.251 -0.27,7.158 -0.343,6.919 -0.426,6.732 -0.519,6.555 -0.603,6.399 -0.727,6.254 -0.883,6.129 -1.195,5.87 -1.579,5.745 -2.047,5.745 H -3.054 Z M 3.065,1.589 C 2.982,1.984 2.836,2.369 2.628,2.722 2.421,3.085 2.182,3.397 1.88,3.646 1.579,3.906 1.236,4.114 0.862,4.259 0.478,4.405 0.052,4.509 -0.405,4.561 V 4.8 c 1.163,0.187 2.015,0.592 2.535,1.184 0.53,0.602 0.789,1.485 0.789,2.659 0,0.26 -0.01,0.52 -0.041,0.759 C 2.846,9.641 2.805,9.88 2.743,10.098 2.597,10.565 2.41,10.96 2.182,11.282 1.953,11.604 1.683,11.885 1.361,12.124 1.028,12.363 0.644,12.539 0.218,12.664 -0.218,12.778 -0.675,12.84 -1.174,12.84 H -6.192 V -4.498 h 5.143 c 0.53,0 1.018,0.062 1.465,0.197 0.415,0.125 0.799,0.322 1.153,0.582 0.342,0.249 0.654,0.582 0.914,0.976 0.239,0.385 0.426,0.821 0.55,1.299 0.115,0.488 0.177,1.018 0.177,1.579 0,0.53 -0.052,1.018 -0.145,1.454"
         style="fill:#ffffff;fill-opacity:1;fill-rule:nonzero;stroke:none"
         transform="matrix(1.3333333,0,0,-1.3333333,37.0068,46.182267)"
         clip-path="url(#clipPath3)" />
      <path
         id="path4"
         d="M 0,0 V 14.139 H -3.428 V -3.2 H 3.574 V 0 Z"
         style="fill:#ffffff;fill-opacity:1;fill-rule:nonzero;stroke:none"
         transform="matrix(1.3333333,0,0,-1.3333333,47.6032,47.913733)"
         clip-path="url(#clipPath5)" />
      <path
         id="path6"
         d="m 0,0 0.623,5.766 c 0.031,0.145 0.042,0.28 0.042,0.478 0,0.103 0.01,0.218 0.021,0.322 0.01,0.093 0.01,0.187 0.01,0.27 V 6.96 l 0.01,1.019 H 1.589 V 7.688 c 0,-0.291 0,-0.551 0.011,-0.748 L 1.631,6.358 C 1.641,6.15 1.652,5.963 1.673,5.766 L 2.296,0 Z M 3.594,10.451 H -1.299 L -4.01,-6.888 h 3.428 l 0.509,3.979 h 2.442 l 0.509,-3.979 h 3.428 z"
         style="fill:#ffffff;fill-opacity:1;fill-rule:nonzero;stroke:none"
         transform="matrix(1.3333333,0,0,-1.3333333,58.490533,42.9964)"
         clip-path="url(#clipPath7)" />
      <path
         id="path8"
         d="m 0,0 v -4.415 c 0,-0.322 0,-0.655 0.021,-0.997 0.01,-0.343 0.031,-0.697 0.062,-1.06 0.021,-0.405 0.062,-0.873 0.114,-1.403 0.063,-0.529 0.125,-1.07 0.198,-1.599 0.062,-0.541 0.135,-1.029 0.197,-1.455 0.083,-0.602 0.156,-1.122 0.218,-1.558 0.073,-0.437 0.135,-0.862 0.208,-1.278 0.062,-0.416 0.135,-0.873 0.218,-1.392 H 0.945 c -0.052,0.322 -0.104,0.654 -0.145,0.997 -0.052,0.322 -0.104,0.665 -0.166,1.018 -0.135,0.727 -0.27,1.434 -0.405,2.13 -0.136,0.686 -0.291,1.434 -0.468,2.244 -0.073,0.374 -0.177,0.81 -0.291,1.299 -0.114,0.488 -0.239,0.986 -0.363,1.475 -0.125,0.488 -0.25,0.935 -0.364,1.329 L -2.556,0 h -4.01 v -17.339 h 3.429 v 4.239 c 0,0.332 -0.011,0.675 -0.021,1.028 -0.011,0.354 -0.031,0.717 -0.052,1.081 -0.062,0.737 -0.135,1.496 -0.229,2.265 -0.104,0.779 -0.197,1.537 -0.291,2.295 -0.124,0.79 -0.238,1.538 -0.353,2.244 -0.114,0.707 -0.228,1.372 -0.322,2.005 h 0.291 c 0.052,-0.311 0.104,-0.644 0.156,-0.976 0.062,-0.343 0.125,-0.686 0.197,-1.039 0.125,-0.727 0.27,-1.465 0.437,-2.223 0.166,-0.748 0.332,-1.486 0.488,-2.192 0.124,-0.52 0.249,-1.039 0.395,-1.569 0.135,-0.53 0.27,-1.028 0.394,-1.496 0.125,-0.457 0.239,-0.852 0.343,-1.163 l 1.34,-4.499 H 3.418 V 0 Z"
         style="fill:#ffffff;fill-opacity:1;fill-rule:nonzero;stroke:none"
         transform="matrix(1.3333333,0,0,-1.3333333,77.010267,29.061733)"
         clip-path="url(#clipPath9)" />
      <path
         id="path10"
         d="M 0,0 C -0.073,-0.208 -0.145,-0.405 -0.239,-0.592 -0.613,-1.351 -1.153,-1.953 -1.87,-2.4 c -0.717,-0.436 -1.548,-0.654 -2.493,-0.654 -0.572,0 -1.122,0.093 -1.642,0.27 -0.509,0.145 -0.966,0.395 -1.392,0.727 -0.426,0.332 -0.779,0.706 -1.059,1.153 -0.322,0.488 -0.551,1.018 -0.707,1.569 -0.145,0.55 -0.228,1.132 -0.228,1.724 0,0.312 0.02,0.634 0.062,0.935 0.042,0.312 0.104,0.603 0.187,0.883 0.322,1.122 0.904,2.016 1.756,2.681 0.363,0.28 0.81,0.519 1.319,0.706 0.519,0.187 1.08,0.291 1.704,0.291 0.457,0 0.904,-0.062 1.34,-0.166 0.426,-0.114 0.81,-0.281 1.153,-0.499 0.353,-0.218 0.665,-0.478 0.935,-0.769 0.26,-0.291 0.499,-0.633 0.696,-1.028 0.197,-0.395 0.333,-0.81 0.416,-1.247 h 3.49 C 3.595,4.997 3.408,5.755 3.117,6.451 2.826,7.127 2.431,7.771 1.932,8.363 1.444,8.965 0.873,9.474 0.218,9.911 c -1.361,0.883 -2.878,1.319 -4.55,1.319 -0.478,0 -0.945,-0.041 -1.392,-0.114 -0.468,-0.083 -0.904,-0.187 -1.33,-0.322 -0.738,-0.249 -1.475,-0.644 -2.213,-1.174 -0.737,-0.53 -1.392,-1.184 -1.942,-1.974 -0.499,-0.717 -0.883,-1.517 -1.174,-2.4 -0.291,-0.872 -0.426,-1.818 -0.426,-2.836 0,-0.488 0.031,-0.976 0.104,-1.444 0.072,-0.457 0.176,-0.914 0.311,-1.35 0.27,-0.852 0.655,-1.663 1.174,-2.411 0.509,-0.758 1.122,-1.392 1.829,-1.921 0.81,-0.603 1.641,-1.029 2.503,-1.299 0.863,-0.26 1.714,-0.384 2.556,-0.384 0.852,0 1.662,0.114 2.431,0.342 1.548,0.468 2.826,1.309 3.823,2.514 0.478,0.572 0.873,1.206 1.174,1.891 0.301,0.686 0.499,1.455 0.571,2.306 H 0.177 C 0.125,0.426 0.062,0.208 0,0"
         style="fill:#ffffff;fill-opacity:1;fill-rule:nonzero;stroke:none"
         transform="matrix(1.3333333,0,0,-1.3333333,100.40547,43.841333)"
         clip-path="url(#clipPath11)" />
      <path
         id="path12"
         d="m 0,0 0.634,5.766 c 0.02,0.145 0.041,0.301 0.041,0.478 0,0.103 0,0.218 0.011,0.322 0.01,0.093 0.02,0.187 0.02,0.27 0,0.083 0,0.176 0.011,0.259 V 7.979 H 1.589 L 1.6,6.919 c 0,0 0.073,-1.039 0.073,-1.174 L 2.306,0 Z M 3.605,10.451 H -1.299 L -4.01,-6.888 h 3.428 l 0.509,3.979 h 2.452 l 0.509,-3.979 h 3.428 z"
         style="fill:#ffffff;fill-opacity:1;fill-rule:nonzero;stroke:none"
         transform="matrix(1.3333333,0,0,-1.3333333,110.64187,42.9964)"
         clip-path="url(#clipPath13)" />
      <path
         id="path14"
         d="M 0,0 V 15.97 H -3.87 V -3.62 H 4.04 V 0 Z"
         style="fill:#ffffff;fill-opacity:1;fill-rule:nonzero;stroke:none"
         transform="matrix(1.3333333,0,0,-1.3333333,5.9341333,23.291467)"
         clip-path="url(#clipPath15)" />
      <path
         id="path16"
         d="M 0,0 0.7,6.45 C 0.73,6.62 0.75,6.8 0.75,7 c 0,0.12 0,0.26 0.02,0.38 0.01,0.08 0.01,0.19 0.01,0.29 0,0.09 0.01,0.18 0.02,0.28 V 8.91 H 1.69 V 8.63 C 1.69,8.29 1.69,8.01 1.7,7.77 1.72,7.58 1.73,7.4 1.74,7.23 V 7.12 C 1.75,6.93 1.77,6.73 1.79,6.5 L 2.49,0 Z M 4.01,11.75 H -1.52 L -4.59,-7.84 h 3.87 l 0.58,4.49 H 2.63 L 3.2,-7.84 h 3.87 z"
         style="fill:#ffffff;fill-opacity:1;fill-rule:nonzero;stroke:none"
         transform="matrix(1.3333333,0,0,-1.3333333,18.307467,17.664933)"
         clip-path="url(#clipPath17)" />
      <path
         id="path18"
         d="m 0,0 c -0.01,-0.15 -0.03,-0.29 -0.05,-0.42 -0.08,-0.35 -0.17,-0.6 -0.28,-0.8 -0.1,-0.19 -0.24,-0.38 -0.43,-0.57 -0.2,-0.2 -0.42,-0.34 -0.67,-0.41 -0.24,-0.07 -0.46,-0.1 -0.69,-0.1 h -1.21 v 5.56 h 1.21 c 0.29,0 0.54,-0.04 0.74,-0.12 0.26,-0.11 0.46,-0.25 0.62,-0.42 0.16,-0.16 0.3,-0.35 0.42,-0.56 0.13,-0.23 0.22,-0.5 0.28,-0.81 C -0.01,1.09 0.01,0.8 0.01,0.47 0.01,0.3 0.01,0.15 0,0 M 3.36,3.07 C 3.13,3.84 2.82,4.49 2.41,5.02 1.56,6.13 0.39,6.69 -1.11,6.69 h -5.9 v -20.06 h 3.96 v 7.64 h 1.94 c 0.6,0 1.14,0.09 1.64,0.27 0.51,0.19 0.96,0.46 1.34,0.8 0.37,0.35 0.7,0.78 0.98,1.29 0.3,0.52 0.51,1.11 0.64,1.76 0.14,0.64 0.21,1.34 0.21,2.08 0,0.96 -0.12,1.82 -0.34,2.6"
         style="fill:#ffffff;fill-opacity:1;fill-rule:nonzero;stroke:none"
         transform="matrix(1.3333333,0,0,-1.3333333,44.3608,10.291467)"
         clip-path="url(#clipPath19)" />
      <path
         id="path20"
         d="m 0,0 0.72,6.6 c 0.03,0.18 0.05,0.35 0.05,0.56 0,0.12 0.01,0.25 0.02,0.37 0.01,0.1 0.01,0.22 0.01,0.32 0,0.08 0,0.16 0.01,0.25 l 0.01,1.01 h 0.9 V 8.83 c 0,-0.35 0,-0.64 0.01,-0.88 C 1.75,7.75 1.76,7.56 1.77,7.38 1.78,7.11 1.8,6.92 1.81,6.71 L 1.82,6.59 2.53,0 Z M 4.1,12.03 H -1.56 L -4.7,-8.03 h 3.96 l 0.59,4.6 h 2.84 l 0.58,-4.6 h 3.97 z"
         style="fill:#ffffff;fill-opacity:1;fill-rule:nonzero;stroke:none"
         transform="matrix(1.3333333,0,0,-1.3333333,54.8808,17.4116)"
         clip-path="url(#clipPath21)" />
      <path
         id="path22"
         d="M 0,0 V 16.35 H -3.96 V -3.71 H 4.13 V 0 Z"
         style="fill:#ffffff;fill-opacity:1;fill-rule:nonzero;stroke:none"
         transform="matrix(1.3333333,0,0,-1.3333333,71.387467,23.1716)"
         clip-path="url(#clipPath23)" />
      <path
         id="path24"
         d="M 0,0 C -0.09,0.53 -0.22,1.05 -0.39,1.55 -0.68,2.41 -1.12,3.27 -1.72,4.14 -2.32,5.01 -3.09,5.8 -4.05,6.51 -4.88,7.1 -5.79,7.58 -6.79,7.93 -7.8,8.29 -8.86,8.46 -10,8.46 c -0.55,0 -1.09,-0.04 -1.62,-0.13 -0.54,-0.09 -1.05,-0.22 -1.55,-0.39 -0.99,-0.34 -1.91,-0.81 -2.77,-1.43 -0.86,-0.62 -1.6,-1.35 -2.22,-2.19 -0.63,-0.86 -1.12,-1.78 -1.46,-2.78 -0.35,-0.99 -0.53,-2.05 -0.53,-3.16 0,-0.56 0.05,-1.11 0.14,-1.66 0.09,-0.54 0.22,-1.07 0.39,-1.58 0.34,-1.06 0.83,-2.02 1.45,-2.86 0.63,-0.84 1.36,-1.58 2.2,-2.21 0.84,-0.62 1.76,-1.11 2.77,-1.47 1.01,-0.36 2.08,-0.54 3.2,-0.54 0.27,0 0.55,0.01 0.82,0.03 -0.1,0.21 -0.2,0.43 -0.32,0.6 -0.37,0.51 -0.9,0.75 -1.43,1.11 -1.84,1.28 -3.15,2.93 -3.77,5.1 -0.45,1.52 0.02,3.12 0.69,4.51 0.06,0.13 0.13,0.26 0.19,0.39 0.21,0.41 0.66,1.09 0.67,1.55 0.02,0.64 -0.43,1 -0.83,1.38 -0.19,0.2 -0.41,0.42 -0.58,0.66 -0.2,-0.06 -0.41,-0.09 -0.63,-0.1 -0.21,-0.02 -1.28,-0.21 -1.07,0.27 0.1,0.2 0.29,0.36 0.45,0.52 0.14,0.13 0.26,0.27 0.41,0.4 0.12,0.12 0.27,0.28 0.43,0.36 0.03,0.78 0.45,1.48 1.28,1.78 0.86,0.31 1.97,0.32 2.82,-0.03 1.13,-0.46 1.93,-1.48 2.55,-2.48 0.49,-0.8 0.91,-1.64 1.24,-2.53 0.28,-0.76 0.38,-1.51 0.71,-2.24 0.23,-0.51 0.42,-0.9 0.92,-1.18 0.43,-0.25 0.92,-0.36 1.34,-0.64 1.15,-0.77 2.07,-1.7 3.05,-2.67 0.14,-0.13 0.27,-0.27 0.42,-0.4 0.09,0.23 0.18,0.47 0.26,0.71 0.34,1.05 0.51,2.12 0.51,3.22 C 0.13,-1.07 0.09,-0.53 0,0"
         style="fill:#ffffff;fill-opacity:1;fill-rule:nonzero;stroke:none"
         transform="matrix(1.3333333,0,0,-1.3333333,102.9208,12.424933)"
         clip-path="url(#clipPath25)" />
      <path
         id="path26"
         d="m 0,0 -1.27,-8.02 c -0.04,-0.27 -0.08,-0.55 -0.12,-0.84 -0.03,-0.29 -0.06,-0.58 -0.1,-0.88 -0.06,-0.62 -0.12,-1.25 -0.17,-1.88 -0.04,-0.64 -0.07,-1.31 -0.1,-2.02 -0.02,-0.67 -0.04,-1.34 -0.06,-1.99 -0.01,-0.65 -0.02,-1.29 -0.02,-1.9 h -0.34 v 0.92 c 0,0.32 0,0.65 -0.01,0.98 -0.03,0.56 -0.04,1.04 -0.06,1.43 -0.01,0.38 -0.02,0.77 -0.04,1.16 -0.01,0.39 -0.04,0.85 -0.07,1.39 -0.05,0.71 -0.1,1.36 -0.16,1.97 -0.07,0.6 -0.14,1.15 -0.21,1.66 L -4.02,0 H -9.6 v -20.06 h 3.97 v 2.38 c 0,0.93 -0.03,1.89 -0.07,2.9 -0.04,0.8 -0.07,1.53 -0.12,2.17 -0.04,0.64 -0.09,1.28 -0.14,1.92 -0.05,0.64 -0.11,1.37 -0.18,2.18 -0.1,1.12 -0.2,2.18 -0.3,3.18 -0.1,1 -0.2,1.94 -0.29,2.8 h 0.34 c 0.04,-0.45 0.09,-0.91 0.15,-1.4 0.06,-0.48 0.12,-0.97 0.18,-1.46 0.09,-0.81 0.22,-1.75 0.38,-2.81 0.15,-1.06 0.33,-2.2 0.54,-3.42 0.12,-0.79 0.24,-1.51 0.35,-2.14 0.11,-0.64 0.23,-1.25 0.34,-1.85 0.12,-0.6 0.25,-1.23 0.38,-1.91 l 0.54,-2.54 h 3.04 l 0.54,2.54 c 0.09,0.45 0.18,0.91 0.28,1.39 0.09,0.47 0.18,0.95 0.27,1.45 0.12,0.6 0.23,1.27 0.36,1.99 0.12,0.72 0.24,1.44 0.36,2.17 0.12,0.73 0.22,1.42 0.31,2.06 0.1,0.76 0.2,1.46 0.28,2.09 0.08,0.63 0.17,1.25 0.25,1.87 0.07,0.62 0.15,1.28 0.21,1.97 H 2.71 C 2.67,-2.98 2.62,-3.44 2.58,-3.93 2.52,-4.41 2.47,-4.91 2.42,-5.41 2.31,-6.43 2.21,-7.47 2.12,-8.51 2.03,-9.56 1.95,-10.62 1.87,-11.68 c -0.08,-1 -0.14,-2.03 -0.19,-3.1 -0.04,-1.06 -0.07,-2.03 -0.07,-2.9 v -2.38 H 5.58 V 0 Z"
         style="fill:#ffffff;fill-opacity:1;fill-rule:nonzero;stroke:none"
         transform="matrix(1.3333333,0,0,-1.3333333,117.9208,1.3714667)"
         clip-path="url(#clipPath27)" />
      <path
         id="path28"
         d="m 0,0 0.72,6.6 c 0.03,0.17 0.05,0.35 0.05,0.56 0,0.12 0,0.25 0.01,0.37 0.01,0.13 0.02,0.23 0.02,0.32 0,0.08 0.01,0.16 0.01,0.25 l 0.01,1.01 h 0.9 V 8.83 c 0,-0.35 0,-0.64 0.01,-0.88 C 1.74,7.71 1.75,7.5 1.77,7.3 1.79,7.04 1.8,6.83 1.82,6.6 L 2.53,0 Z M 4.1,12.03 H -1.57 L -4.7,-8.03 h 3.96 l 0.59,4.6 h 2.83 l 0.59,-4.6 h 3.96 z"
         style="fill:#ffffff;fill-opacity:1;fill-rule:nonzero;stroke:none"
         transform="matrix(1.3333333,0,0,-1.3333333,133.2008,17.4116)"
         clip-path="url(#clipPath29)" />
    </g>
  </g>
</svg>
